<mxfile host="app.diagrams.net" modified="2024-03-23T09:11:07.906Z" agent="Mozilla/5.0 (Windows NT 10.0; Win64; x64) AppleWebKit/537.36 (KHTML, like Gecko) Chrome/123.0.0.0 Safari/537.36" etag="6QnNQ_8T1D_9hFoCqrSi" version="24.0.8" type="device">
  <diagram name="Pagina-1" id="iAaZzgLI-wj2KXef2dVn">
    <mxGraphModel dx="989" dy="538" grid="1" gridSize="10" guides="1" tooltips="1" connect="1" arrows="1" fold="1" page="1" pageScale="1" pageWidth="827" pageHeight="1169" math="0" shadow="0">
      <root>
        <mxCell id="0" />
        <mxCell id="1" parent="0" />
        <mxCell id="mKxlqxBcRU5YA2LqRPnr-2" value="Utente" style="whiteSpace=wrap;html=1;align=center;" parent="1" vertex="1">
          <mxGeometry x="150" y="260" width="100" height="40" as="geometry" />
        </mxCell>
        <mxCell id="mKxlqxBcRU5YA2LqRPnr-5" value="Portafoglio" style="whiteSpace=wrap;html=1;align=center;" parent="1" vertex="1">
          <mxGeometry x="560" y="260" width="100" height="40" as="geometry" />
        </mxCell>
        <mxCell id="mKxlqxBcRU5YA2LqRPnr-6" value="" style="endArrow=none;html=1;rounded=0;entryX=0;entryY=0.5;entryDx=0;entryDy=0;" parent="1" target="mKxlqxBcRU5YA2LqRPnr-5" edge="1">
          <mxGeometry relative="1" as="geometry">
            <mxPoint x="250" y="279.65999999999997" as="sourcePoint" />
            <mxPoint x="410" y="279.65999999999997" as="targetPoint" />
          </mxGeometry>
        </mxCell>
        <mxCell id="mKxlqxBcRU5YA2LqRPnr-7" value="(1;1)" style="resizable=0;html=1;whiteSpace=wrap;align=left;verticalAlign=bottom;" parent="mKxlqxBcRU5YA2LqRPnr-6" connectable="0" vertex="1">
          <mxGeometry x="-1" relative="1" as="geometry" />
        </mxCell>
        <mxCell id="mKxlqxBcRU5YA2LqRPnr-8" value="(1;1)" style="resizable=0;html=1;whiteSpace=wrap;align=right;verticalAlign=bottom;" parent="mKxlqxBcRU5YA2LqRPnr-6" connectable="0" vertex="1">
          <mxGeometry x="1" relative="1" as="geometry" />
        </mxCell>
        <mxCell id="mKxlqxBcRU5YA2LqRPnr-4" value="Possiede" style="shape=rhombus;perimeter=rhombusPerimeter;whiteSpace=wrap;html=1;align=center;" parent="1" vertex="1">
          <mxGeometry x="360" y="250" width="120" height="60" as="geometry" />
        </mxCell>
        <mxCell id="mKxlqxBcRU5YA2LqRPnr-10" value="" style="endArrow=none;html=1;rounded=0;exitX=0.5;exitY=0;exitDx=0;exitDy=0;entryX=0;entryY=1;entryDx=0;entryDy=0;" parent="1" source="WEdIaGgWH_7vFndWgFQs-27" target="mKxlqxBcRU5YA2LqRPnr-2" edge="1">
          <mxGeometry width="50" height="50" relative="1" as="geometry">
            <mxPoint x="85" y="320" as="sourcePoint" />
            <mxPoint x="150" y="300" as="targetPoint" />
          </mxGeometry>
        </mxCell>
        <mxCell id="WEdIaGgWH_7vFndWgFQs-4" value="" style="endArrow=none;html=1;rounded=0;exitX=0.5;exitY=0;exitDx=0;exitDy=0;entryX=0.5;entryY=1;entryDx=0;entryDy=0;" parent="1" target="mKxlqxBcRU5YA2LqRPnr-2" edge="1">
          <mxGeometry width="50" height="50" relative="1" as="geometry">
            <mxPoint x="175" y="330" as="sourcePoint" />
            <mxPoint x="240" y="310" as="targetPoint" />
          </mxGeometry>
        </mxCell>
        <mxCell id="WEdIaGgWH_7vFndWgFQs-6" value="" style="endArrow=none;html=1;rounded=0;exitX=0.5;exitY=0;exitDx=0;exitDy=0;entryX=1;entryY=1;entryDx=0;entryDy=0;" parent="1" target="mKxlqxBcRU5YA2LqRPnr-2" edge="1">
          <mxGeometry width="50" height="50" relative="1" as="geometry">
            <mxPoint x="275" y="330" as="sourcePoint" />
            <mxPoint x="250" y="280" as="targetPoint" />
          </mxGeometry>
        </mxCell>
        <mxCell id="WEdIaGgWH_7vFndWgFQs-10" value="" style="endArrow=none;html=1;rounded=0;exitX=0.75;exitY=0;exitDx=0;exitDy=0;entryX=0;entryY=1;entryDx=0;entryDy=0;" parent="1" source="mKxlqxBcRU5YA2LqRPnr-2" edge="1">
          <mxGeometry width="50" height="50" relative="1" as="geometry">
            <mxPoint x="210" y="240" as="sourcePoint" />
            <mxPoint x="250.04757976650512" y="245.8173456656374" as="targetPoint" />
          </mxGeometry>
        </mxCell>
        <mxCell id="WEdIaGgWH_7vFndWgFQs-11" value="" style="endArrow=none;html=1;rounded=0;exitX=0.5;exitY=0;exitDx=0;exitDy=0;entryX=0.25;entryY=1;entryDx=0;entryDy=0;" parent="1" target="mKxlqxBcRU5YA2LqRPnr-5" edge="1">
          <mxGeometry width="50" height="50" relative="1" as="geometry">
            <mxPoint x="560" y="330" as="sourcePoint" />
            <mxPoint x="600" y="300" as="targetPoint" />
          </mxGeometry>
        </mxCell>
        <mxCell id="WEdIaGgWH_7vFndWgFQs-15" value="" style="endArrow=none;html=1;rounded=0;exitX=0.5;exitY=1;exitDx=0;exitDy=0;entryX=0.5;entryY=0;entryDx=0;entryDy=0;" parent="1" source="mKxlqxBcRU5YA2LqRPnr-5" target="WEdIaGgWH_7vFndWgFQs-18" edge="1">
          <mxGeometry relative="1" as="geometry">
            <mxPoint x="580" y="380" as="sourcePoint" />
            <mxPoint x="610" y="480" as="targetPoint" />
          </mxGeometry>
        </mxCell>
        <mxCell id="WEdIaGgWH_7vFndWgFQs-16" value="(0;N)" style="resizable=0;html=1;whiteSpace=wrap;align=left;verticalAlign=bottom;" parent="WEdIaGgWH_7vFndWgFQs-15" connectable="0" vertex="1">
          <mxGeometry x="-1" relative="1" as="geometry">
            <mxPoint y="20" as="offset" />
          </mxGeometry>
        </mxCell>
        <mxCell id="WEdIaGgWH_7vFndWgFQs-17" value="(1;N)" style="resizable=0;html=1;whiteSpace=wrap;align=right;verticalAlign=bottom;" parent="WEdIaGgWH_7vFndWgFQs-15" connectable="0" vertex="1">
          <mxGeometry x="1" relative="1" as="geometry" />
        </mxCell>
        <mxCell id="WEdIaGgWH_7vFndWgFQs-14" value="Ha" style="shape=rhombus;perimeter=rhombusPerimeter;whiteSpace=wrap;html=1;align=center;" parent="1" vertex="1">
          <mxGeometry x="550" y="390" width="120" height="60" as="geometry" />
        </mxCell>
        <mxCell id="WEdIaGgWH_7vFndWgFQs-18" value="Movimento" style="whiteSpace=wrap;html=1;align=center;" parent="1" vertex="1">
          <mxGeometry x="560" y="500" width="100" height="40" as="geometry" />
        </mxCell>
        <mxCell id="WEdIaGgWH_7vFndWgFQs-20" value="" style="endArrow=none;html=1;rounded=0;entryX=0;entryY=1;entryDx=0;entryDy=0;" parent="1" target="WEdIaGgWH_7vFndWgFQs-18" edge="1">
          <mxGeometry width="50" height="50" relative="1" as="geometry">
            <mxPoint x="535" y="570" as="sourcePoint" />
            <mxPoint x="585" y="520" as="targetPoint" />
          </mxGeometry>
        </mxCell>
        <mxCell id="WEdIaGgWH_7vFndWgFQs-22" value="" style="endArrow=none;html=1;rounded=0;entryX=0.5;entryY=1;entryDx=0;entryDy=0;exitX=0.5;exitY=0;exitDx=0;exitDy=0;" parent="1" target="WEdIaGgWH_7vFndWgFQs-18" edge="1">
          <mxGeometry width="50" height="50" relative="1" as="geometry">
            <mxPoint x="620" y="580" as="sourcePoint" />
            <mxPoint x="570" y="550" as="targetPoint" />
          </mxGeometry>
        </mxCell>
        <mxCell id="WEdIaGgWH_7vFndWgFQs-24" value="" style="endArrow=none;html=1;rounded=0;entryX=1;entryY=1;entryDx=0;entryDy=0;" parent="1" target="WEdIaGgWH_7vFndWgFQs-18" edge="1">
          <mxGeometry width="50" height="50" relative="1" as="geometry">
            <mxPoint x="720" y="580" as="sourcePoint" />
            <mxPoint x="770" y="530" as="targetPoint" />
          </mxGeometry>
        </mxCell>
        <mxCell id="WEdIaGgWH_7vFndWgFQs-26" value="" style="endArrow=none;html=1;rounded=0;exitX=0.5;exitY=0;exitDx=0;exitDy=0;entryX=1;entryY=1;entryDx=0;entryDy=0;" parent="1" target="mKxlqxBcRU5YA2LqRPnr-5" edge="1">
          <mxGeometry width="50" height="50" relative="1" as="geometry">
            <mxPoint x="700" y="325" as="sourcePoint" />
            <mxPoint x="649.9999999999998" y="317" as="targetPoint" />
          </mxGeometry>
        </mxCell>
        <mxCell id="WEdIaGgWH_7vFndWgFQs-27" value="email" style="ellipse;whiteSpace=wrap;html=1;align=center;fontStyle=4;" parent="1" vertex="1">
          <mxGeometry x="50" y="330" width="65" height="26" as="geometry" />
        </mxCell>
        <mxCell id="WEdIaGgWH_7vFndWgFQs-28" value="ID_portafoglio" style="ellipse;whiteSpace=wrap;html=1;align=center;fontStyle=4;" parent="1" vertex="1">
          <mxGeometry x="720" y="265" width="80" height="35" as="geometry" />
        </mxCell>
        <mxCell id="WEdIaGgWH_7vFndWgFQs-30" value="" style="endArrow=none;html=1;rounded=0;exitX=0;exitY=0.5;exitDx=0;exitDy=0;entryX=1;entryY=0.5;entryDx=0;entryDy=0;" parent="1" source="WEdIaGgWH_7vFndWgFQs-28" target="mKxlqxBcRU5YA2LqRPnr-5" edge="1">
          <mxGeometry width="50" height="50" relative="1" as="geometry">
            <mxPoint x="715" y="290" as="sourcePoint" />
            <mxPoint x="740" y="260" as="targetPoint" />
          </mxGeometry>
        </mxCell>
        <mxCell id="WEdIaGgWH_7vFndWgFQs-31" value="ID_movimento" style="ellipse;whiteSpace=wrap;html=1;align=center;fontStyle=4;" parent="1" vertex="1">
          <mxGeometry x="440" y="500" width="80" height="35" as="geometry" />
        </mxCell>
        <mxCell id="WEdIaGgWH_7vFndWgFQs-32" value="" style="endArrow=none;html=1;rounded=0;exitX=1;exitY=0.5;exitDx=0;exitDy=0;entryX=0;entryY=0.5;entryDx=0;entryDy=0;" parent="1" source="WEdIaGgWH_7vFndWgFQs-31" target="WEdIaGgWH_7vFndWgFQs-18" edge="1">
          <mxGeometry width="50" height="50" relative="1" as="geometry">
            <mxPoint x="525" y="520" as="sourcePoint" />
            <mxPoint x="550" y="490" as="targetPoint" />
          </mxGeometry>
        </mxCell>
        <mxCell id="WEdIaGgWH_7vFndWgFQs-36" value="password" style="ellipse;whiteSpace=wrap;html=1;align=center;" parent="1" vertex="1">
          <mxGeometry x="130" y="330" width="80" height="32" as="geometry" />
        </mxCell>
        <mxCell id="WEdIaGgWH_7vFndWgFQs-37" value="nome&lt;span style=&quot;color: rgba(0, 0, 0, 0); font-family: monospace; font-size: 0px; text-align: start; text-wrap: nowrap;&quot;&gt;%3CmxGraphModel%3E%3Croot%3E%3CmxCell%20id%3D%220%22%2F%3E%3CmxCell%20id%3D%221%22%20parent%3D%220%22%2F%3E%3CmxCell%20id%3D%222%22%20value%3D%22password%22%20style%3D%22ellipse%3BwhiteSpace%3Dwrap%3Bhtml%3D1%3Balign%3Dcenter%3B%22%20vertex%3D%221%22%20parent%3D%221%22%3E%3CmxGeometry%20x%3D%22130%22%20y%3D%22330%22%20width%3D%2280%22%20height%3D%2232%22%20as%3D%22geometry%22%2F%3E%3C%2FmxCell%3E%3C%2Froot%3E%3C%2FmxGraphModel%3E&lt;/span&gt;" style="ellipse;whiteSpace=wrap;html=1;align=center;" parent="1" vertex="1">
          <mxGeometry x="240" y="330" width="80" height="32" as="geometry" />
        </mxCell>
        <mxCell id="WEdIaGgWH_7vFndWgFQs-38" value="cognome" style="ellipse;whiteSpace=wrap;html=1;align=center;" parent="1" vertex="1">
          <mxGeometry x="240" y="218" width="80" height="32" as="geometry" />
        </mxCell>
        <mxCell id="WEdIaGgWH_7vFndWgFQs-39" value="uscite" style="ellipse;whiteSpace=wrap;html=1;align=center;" parent="1" vertex="1">
          <mxGeometry x="510" y="330" width="80" height="32" as="geometry" />
        </mxCell>
        <mxCell id="WEdIaGgWH_7vFndWgFQs-40" value="budget" style="ellipse;whiteSpace=wrap;html=1;align=center;" parent="1" vertex="1">
          <mxGeometry x="670" y="324" width="80" height="32" as="geometry" />
        </mxCell>
        <mxCell id="WEdIaGgWH_7vFndWgFQs-41" value="categoria" style="ellipse;whiteSpace=wrap;html=1;align=center;" parent="1" vertex="1">
          <mxGeometry x="490" y="569" width="80" height="32" as="geometry" />
        </mxCell>
        <mxCell id="WEdIaGgWH_7vFndWgFQs-42" value="data_inserimento" style="ellipse;whiteSpace=wrap;html=1;align=center;" parent="1" vertex="1">
          <mxGeometry x="590" y="580" width="100" height="32" as="geometry" />
        </mxCell>
        <mxCell id="WEdIaGgWH_7vFndWgFQs-43" value="importo" style="ellipse;whiteSpace=wrap;html=1;align=center;" parent="1" vertex="1">
          <mxGeometry x="700" y="569" width="100" height="32" as="geometry" />
        </mxCell>
        <mxCell id="PXna30N97rRZyAbE0JVr-1" value="" style="endArrow=none;html=1;rounded=0;entryX=1;entryY=0.5;entryDx=0;entryDy=0;" edge="1" parent="1" target="WEdIaGgWH_7vFndWgFQs-18">
          <mxGeometry width="50" height="50" relative="1" as="geometry">
            <mxPoint x="747" y="514" as="sourcePoint" />
            <mxPoint x="687" y="474" as="targetPoint" />
          </mxGeometry>
        </mxCell>
        <mxCell id="PXna30N97rRZyAbE0JVr-2" value="Tipologia" style="ellipse;whiteSpace=wrap;html=1;align=center;" vertex="1" parent="1">
          <mxGeometry x="710" y="501.5" width="100" height="32" as="geometry" />
        </mxCell>
        <mxCell id="PXna30N97rRZyAbE0JVr-3" value="" style="endArrow=none;html=1;rounded=0;exitX=0.5;exitY=0;exitDx=0;exitDy=0;entryX=0.75;entryY=0;entryDx=0;entryDy=0;" edge="1" parent="1" target="mKxlqxBcRU5YA2LqRPnr-5">
          <mxGeometry width="50" height="50" relative="1" as="geometry">
            <mxPoint x="690" y="208" as="sourcePoint" />
            <mxPoint x="650" y="180" as="targetPoint" />
          </mxGeometry>
        </mxCell>
        <mxCell id="PXna30N97rRZyAbE0JVr-4" value="entrate" style="ellipse;whiteSpace=wrap;html=1;align=center;" vertex="1" parent="1">
          <mxGeometry x="660" y="207" width="80" height="32" as="geometry" />
        </mxCell>
      </root>
    </mxGraphModel>
  </diagram>
</mxfile>
